# xmcd
#
# Track frame offsets:
#	150
#	26432
#	43610
#	70985
#	108075
#	134657
#	150862
#	167420
#	185680
#	204407
#	226540
#	245475
#	266592
#	289225
#	310165
#	335787
#
# Disc length: 4741 seconds
#
# Revision: 4
# Processed by: cddbd v1.5.2PL0 Copyright (c) Steve Scherf et al.
# Submitted via: audiograbber 1.83.01
#
DISCID=da128310
DTITLE=DIRE STRAITS - TQM - Sultans Of Swing The Very Best Of
DYEAR=1998
DGENRE=Rock
TTITLE0=Sultans Of Swing
TTITLE1=Lady Writer
TTITLE2=Romeo And Juliet
TTITLE3=Tunnel Of Love
TTITLE4=Private Investigators
TTITLE5=Twisting By The Pool
TTITLE6=Love Over Gold (Live)
TTITLE7=So Far Away
TTITLE8=Money For Nothing
TTITLE9=Brothers In Arms
TTITLE10=Walk Of Life
TTITLE11=Calling Elvis
TTITLE12=Heavy Fuel
TTITLE13=On Every Street
TTITLE14=Your Latest Trick (Live)
TTITLE15=Local Hero - Wild Theme (Live)
EXTD=TQM
EXTT0=
EXTT1=
EXTT2=
EXTT3=
EXTT4=
EXTT5=
EXTT6=
EXTT7=
EXTT8=
EXTT9=
EXTT10=
EXTT11=
EXTT12=
EXTT13=
EXTT14=
EXTT15=
PLAYORDER=
